# xmcd
#
# Track frame offsets:
#       150
#       24397
#       52048
#       71609
#       92085
#       107405
#       124580
#       142677
#       165273
#       187037
#
# Disc length: 2704 seconds
#
# Revision: 0
# Processed by: cddbd v1.5.1PL0 Copyright (c) Steve Scherf et al.
# Submitted via: WaveLab 4.01
#
DISCID=790a8e0a
DTITLE=Hora Nona Gospel Singers - You
DYEAR=2003
DGENRE=Gospel
TTITLE0=Praise ye the Lord
TTITLE1=Glory to God
TTITLE2=My prayer song
TTITLE3=Joyful, joyful
TTITLE4=God will make a way
TTITLE5=My mind is made up
TTITLE6=Lead me Lord
TTITLE7=Oh happy day
TTITLE8=Somebody to love
TTITLE9=Get together
EXTD=
EXTT0=
EXTT1=
EXTT2=
EXTT3=
EXTT4=
EXTT5=
EXTT6=
EXTT7=
EXTT8=
EXTT9=
PLAYORDER=
